<?xml version="1.0" encoding="utf-8"?>
<!-- Generator: Adobe Illustrator 23.0.4, SVG Export Plug-In . SVG Version: 6.00 Build 0)  -->
<svg version="1.1" id="Layer_1" xmlns="http://www.w3.org/2000/svg" xmlns:xlink="http://www.w3.org/1999/xlink" x="0px" y="0px"
	 viewBox="0 0 257 150" style="enable-background:new 0 0 257 150;" xml:space="preserve">
<style type="text/css">
	.st0{fill:#42422A;}
	.st1{fill:#FFFFFF;}
	.st2{fill:#B3B3B3;}
	.st3{fill:#CCCCCC;}
	.st4{fill:#F2F2F2;}
	.st5{fill:#01DC00;}
	.st6{fill:#09AF04;}
	.st7{fill:#FE0103;}
	.st8{fill:#C60517;}
</style>
<g>
	<g>
		<rect x="48.4" y="28.4" class="st0" width="67.9" height="95.9"/>
		<rect x="53" y="34.9" class="st1" width="58.7" height="83"/>
		<rect x="68.1" y="25.1" class="st2" width="26.8" height="13.2"/>
		<rect x="68.1" y="31.7" class="st3" width="26.8" height="6.6"/>
		<g>
			<g>
				<polygon class="st4" points="58.3,51.4 58.3,48.7 106.4,48.7 106.4,51.4 58.3,51.4 				"/>
			</g>
			<g>
				<polygon class="st4" points="58.3,64.9 58.3,62.1 106.4,62.1 106.4,64.9 58.3,64.9 				"/>
			</g>
			<g>
				<polygon class="st4" points="58.3,78.3 58.3,75.5 106.4,75.5 106.4,78.3 58.3,78.3 				"/>
			</g>
			<g>
				<polygon class="st4" points="58.3,91.7 58.3,89 106.4,89 106.4,91.7 58.3,91.7 				"/>
			</g>
			<g>
				<polygon class="st4" points="58.3,105.2 58.3,102.4 106.4,102.4 106.4,105.2 58.3,105.2 				"/>
			</g>
		</g>
	</g>
	<g>
		<path class="st2" d="M81.6,95.8c-0.4,0-0.9-0.2-1.2-0.5L61,76.1c-0.3-0.3-0.5-0.8-0.5-1.2c0-0.5,0.2-0.9,0.5-1.3l4.7-5
			c0.3-0.3,0.8-0.5,1.2-0.5c0.4,0,0.9,0.2,1.2,0.5l13.3,13.2l18-19c0.3-0.3,0.8-0.5,1.2-0.5c0.4,0,0.9,0.2,1.2,0.5l4.9,4.8
			c0.7,0.7,0.7,1.8,0,2.5L88.6,89.1c-0.3,0.3-0.5,0.5-0.5,0.6c0.1-0.1,0.1-0.2,0.2-0.3c-0.1,0.2-0.2,0.3-0.3,0.5
			c-0.1,0.1-0.2,0.3-0.4,0.4l-4.7,5C82.5,95.6,82,95.8,81.6,95.8L81.6,95.8z"/>
		<path class="st1" d="M81.3,95.5c-0.4,0-0.9-0.2-1.2-0.5L60.7,75.8c-0.3-0.3-0.5-0.8-0.5-1.2c0-0.5,0.2-0.9,0.5-1.3l4.7-5
			c0.3-0.3,0.8-0.5,1.2-0.5c0.4,0,0.9,0.2,1.2,0.5l13.3,13.2l18-19c0.3-0.3,0.8-0.5,1.2-0.5c0.4,0,0.9,0.2,1.2,0.5l4.9,4.8
			c0.7,0.7,0.7,1.8,0,2.5L88.3,88.8c-0.3,0.3-0.5,0.5-0.5,0.6c0.1-0.1,0.1-0.2,0.2-0.3c-0.1,0.2-0.2,0.3-0.3,0.5
			c-0.1,0.1-0.2,0.3-0.4,0.4l-4.7,5C82.2,95.3,81.8,95.5,81.3,95.5L81.3,95.5z"/>
		<path class="st5" d="M105.7,69.1c0.3-0.3,0.3-0.8,0-1.1l-4.9-4.8c-0.3-0.3-0.8-0.3-1.1,0L81.7,82.2c-0.3,0.3-0.8,0.3-1.1,0
			L67.2,68.9c-0.3-0.3-0.8-0.3-1.1,0l-4.7,5c-0.3,0.3-0.3,0.8,0,1.1l19.4,19.2c0.3,0.3,0.8,0.3,1.1,0l4.7-5c0.3-0.3,0.5-0.6,0.5-0.6
			c0,0,0.2-0.3,0.5-0.6L105.7,69.1z"/>
		<path class="st5" d="M105.7,69.1c0.3-0.3,0.3-0.8,0-1.1l-4.9-4.8c-0.3-0.3-0.8-0.3-1.1,0L81.7,82.2c-0.3,0.3-0.8,0.3-1.1,0
			L67.2,68.9c-0.3-0.3-0.8-0.3-1.1,0l-4.7,5c-0.3,0.3-0.3,0.8,0,1.1l19.4,19.2c0.3,0.3,0.8,0.3,1.1,0l4.7-5c0.3-0.3,0.5-0.6,0.5-0.6
			c0,0,0.2-0.3,0.5-0.6L105.7,69.1z"/>
		<path class="st6" d="M99.7,63.1L81.7,82.2c-0.1,0.1-0.2,0.2-0.3,0.2c0.3,0.1,0.6,0,0.8-0.2l18.1-19.1c0.1-0.1,0.2-0.2,0.3-0.2
			C100.3,62.8,99.9,62.9,99.7,63.1z M61.9,75.1c-0.3-0.3-0.3-0.8,0-1.1l4.7-5c0.1-0.1,0.2-0.2,0.3-0.2c-0.3-0.1-0.6,0-0.8,0.2
			l-4.7,5c-0.3,0.3-0.3,0.8,0,1.1l19.4,19.2c0.2,0.2,0.5,0.3,0.8,0.2c-0.1,0-0.2-0.1-0.3-0.2L61.9,75.1z"/>
	</g>
</g>
<g>
	<g>
		<rect x="140.7" y="28.4" class="st0" width="67.9" height="95.9"/>
		<rect x="145.3" y="34.9" class="st1" width="58.7" height="83"/>
		<rect x="160.4" y="25.1" class="st2" width="26.8" height="13.2"/>
		<rect x="160.4" y="31.7" class="st3" width="26.8" height="6.6"/>
		<g>
			<g>
				<polygon class="st4" points="150.6,51.4 150.6,48.7 198.7,48.7 198.7,51.4 150.6,51.4 				"/>
			</g>
			<g>
				<polygon class="st4" points="150.6,64.9 150.6,62.1 198.7,62.1 198.7,64.9 150.6,64.9 				"/>
			</g>
			<g>
				<polygon class="st4" points="150.6,78.3 150.6,75.5 198.7,75.5 198.7,78.3 150.6,78.3 				"/>
			</g>
			<g>
				<polygon class="st4" points="150.6,91.7 150.6,89 198.7,89 198.7,91.7 150.6,91.7 				"/>
			</g>
			<g>
				<polygon class="st4" points="150.6,105.2 150.6,102.4 198.7,102.4 198.7,105.2 150.6,105.2 				"/>
			</g>
		</g>
	</g>
</g>
<g>
	<path class="st2" d="M165.3,95.8c-0.5,0-0.9-0.2-1.3-0.5l-4.6-4.4c-0.7-0.7-0.8-1.9-0.1-2.6l8.5-9l-9-8.5c-0.4-0.3-0.6-0.8-0.6-1.3
		c0-0.5,0.2-1,0.5-1.3l4.4-4.6c0.3-0.4,0.8-0.6,1.3-0.6c0.5,0,0.9,0.2,1.3,0.5l9,8.5l8.5-9c0.3-0.4,0.8-0.6,1.3-0.6
		c0.5,0,0.9,0.2,1.3,0.5l4.6,4.4c0.7,0.7,0.8,1.9,0.1,2.6l-8.5,9l9,8.5c0.4,0.3,0.6,0.8,0.6,1.3c0,0.5-0.2,1-0.5,1.3l-4.4,4.6
		c-0.3,0.4-0.8,0.6-1.3,0.6c-0.5,0-0.9-0.2-1.3-0.5l-9-8.5l-8.5,9C166.3,95.5,165.8,95.8,165.3,95.8L165.3,95.8z"/>
	<path class="st1" d="M164.9,95.4c-0.5,0-0.9-0.2-1.3-0.5l-4.6-4.4c-0.7-0.7-0.8-1.9-0.1-2.6l8.5-9l-9-8.5c-0.4-0.3-0.6-0.8-0.6-1.3
		c0-0.5,0.2-1,0.5-1.3l4.4-4.6c0.3-0.4,0.8-0.6,1.3-0.6c0.5,0,0.9,0.2,1.3,0.5l9,8.5l8.5-9c0.3-0.4,0.8-0.6,1.3-0.6
		c0.5,0,0.9,0.2,1.3,0.5l4.6,4.4c0.7,0.7,0.8,1.9,0.1,2.6l-8.5,9l9,8.5c0.4,0.3,0.6,0.8,0.6,1.3c0,0.5-0.2,1-0.5,1.3l-4.4,4.6
		c-0.3,0.4-0.8,0.6-1.3,0.6c-0.5,0-0.9-0.2-1.3-0.5l-9-8.5l-8.5,9C165.9,95.2,165.4,95.4,164.9,95.4L164.9,95.4z"/>
	<path class="st7" d="M189.4,68.8c0.3-0.4,0.3-0.9,0-1.3l-4.6-4.4c-0.4-0.3-0.9-0.3-1.3,0l-8.5,9c-0.3,0.4-0.9,0.4-1.3,0l-9-8.5
		c-0.4-0.3-0.9-0.3-1.3,0l-4.4,4.6c-0.3,0.4-0.3,0.9,0,1.3l9,8.5c0.4,0.3,0.4,0.9,0,1.3l-8.5,9c-0.3,0.4-0.3,0.9,0,1.3l4.6,4.4
		c0.4,0.3,0.9,0.3,1.3,0l8.5-9c0.3-0.4,0.9-0.4,1.3,0l9,8.5c0.4,0.3,0.9,0.3,1.3,0l4.4-4.6c0.3-0.4,0.3-0.9,0-1.3l-9-8.5
		c-0.4-0.3-0.4-0.9,0-1.3L189.4,68.8z"/>
	<path class="st8" d="M184,63.2c0.1-0.1,0.2-0.2,0.4-0.2c-0.3-0.1-0.7,0-0.9,0.2l-8.5,9c-0.1,0.1-0.2,0.2-0.4,0.2
		c0.3,0.1,0.7,0,0.9-0.2L184,63.2z M184.9,93.6l-9-8.5c-0.2-0.2-0.6-0.3-0.9-0.2c0.1,0,0.2,0.1,0.3,0.2l9,8.5
		c0.2,0.2,0.6,0.3,0.9,0.2C185.2,93.7,185,93.7,184.9,93.6z M159.6,69.7c-0.4-0.3-0.4-0.9,0-1.3l4.4-4.6c0.1-0.1,0.2-0.2,0.4-0.2
		c-0.3-0.1-0.7,0-0.9,0.2l-4.4,4.6c-0.3,0.4-0.3,0.9,0,1.3l9,8.5c0.4,0.3,0.4,0.9,0,1.3l-8.5,9c-0.3,0.4-0.3,0.9,0,1.3l4.6,4.4
		c0.2,0.2,0.6,0.3,0.9,0.2c-0.1,0-0.2-0.1-0.3-0.2l-4.6-4.4c-0.4-0.3-0.4-0.9,0-1.3l8.5-9c0.3-0.4,0.3-0.9,0-1.3L159.6,69.7z"/>
</g>
</svg>
